/* XPM */
static char * bottom_left_active_xpm[] = {
"16 16 2 1",
"x	c #939393",
".	c #CECECE",
"...............x",
"...............x",
"...............x",
"...............x",
"...............x",
"...............x",
"...............x",
"...............x",
"...............x",
"...............x",
"...............x",
"...............x",
"...............x",
"...............x",
"...............x",
"xxxxxxxxxxxxxxxx"};
