/* XPM */
static char * right_active_xpm[] = {
"5 1 2 1",
"x	c #939393",
".	c #CECECE",
"....x"
};
